<?xml version="1.0" encoding="utf-8"?>
<!-- Generator: Adobe Illustrator 25.2.0, SVG Export Plug-In . SVG Version: 6.00 Build 0)  -->
<svg version="1.1" id="Layer_1" xmlns="http://www.w3.org/2000/svg" xmlns:xlink="http://www.w3.org/1999/xlink" x="0px" y="0px"
	 viewBox="0 0 1000 1000" style="enable-background:new 0 0 1000 1000;" xml:space="preserve">
<style type="text/css">
	.st0{fill:#04A15A;}
	.st1{fill:#FFFFFF;}
</style>
<rect width="1000" height="1000"/>
<g>
	<g>
		<g>
			<path class="st0" d="M275.28,560.79c-1.81-1.03-3.22-2.48-4.23-4.34c-1.01-1.86-1.51-3.99-1.51-6.4c0-2.41,0.5-4.55,1.5-6.41
				c1-1.86,2.41-3.3,4.23-4.33c1.82-1.03,3.9-1.55,6.23-1.55c1.85,0,3.56,0.32,5.12,0.95c1.56,0.64,2.86,1.55,3.91,2.73
				c1.04,1.18,1.74,2.56,2.09,4.14h-3.55c-0.45-1.43-1.36-2.6-2.75-3.5c-1.39-0.9-3.02-1.35-4.89-1.35c-1.67,0-3.15,0.39-4.44,1.17
				c-1.29,0.78-2.29,1.87-3.01,3.27c-0.71,1.4-1.07,3.04-1.07,4.91s0.36,3.51,1.07,4.91c0.72,1.4,1.72,2.48,3.01,3.22
				c1.29,0.75,2.77,1.13,4.44,1.13c1.85,0,3.47-0.44,4.86-1.32c1.39-0.88,2.32-2.05,2.78-3.53h3.55c-0.32,1.55-1,2.92-2.04,4.1
				c-1.03,1.18-2.34,2.1-3.91,2.76c-1.57,0.65-3.3,0.98-5.17,0.98C279.16,562.34,277.09,561.82,275.28,560.79z"/>
			<path class="st0" d="M295.99,549.37c0.74-1.3,1.77-2.34,3.1-3.1c1.33-0.76,2.84-1.14,4.53-1.14c1.69,0,3.21,0.38,4.56,1.14
				c1.35,0.76,2.39,1.8,3.13,3.1c0.74,1.3,1.11,2.77,1.11,4.39c0,1.6-0.38,3.05-1.13,4.36c-0.75,1.31-1.79,2.34-3.12,3.09
				c-1.33,0.75-2.84,1.13-4.55,1.13c-1.67,0-3.17-0.37-4.5-1.13c-1.33-0.75-2.37-1.78-3.12-3.08c-0.75-1.3-1.13-2.76-1.13-4.37
				C294.88,552.14,295.25,550.68,295.99,549.37z M299.62,557.94c1.04,1.11,2.38,1.66,4,1.66c1.67,0,3.03-0.55,4.08-1.66
				c1.05-1.11,1.58-2.5,1.58-4.18c0-1.69-0.52-3.1-1.57-4.22c-1.04-1.12-2.41-1.68-4.09-1.68c-1.62,0-2.96,0.56-4,1.68
				c-1.05,1.12-1.57,2.52-1.57,4.22C298.05,555.44,298.57,556.84,299.62,557.94z"/>
			<path class="st0" d="M328.97,546.88c1.1,1.17,1.66,2.81,1.66,4.93v10.07h-3.1v-9.37c0-3.08-1.24-4.61-3.73-4.61
				c-1.36,0-2.43,0.41-3.22,1.22c-0.79,0.81-1.18,1.85-1.18,3.13v9.6h-3.06v-16.24h2.56l0.29,2.29c0.49-0.84,1.23-1.51,2.2-2.02
				c0.97-0.5,2.02-0.76,3.15-0.76C326.39,545.13,327.87,545.71,328.97,546.88z"/>
			<path class="st0" d="M348.2,546.88c1.1,1.17,1.66,2.81,1.66,4.93v10.07h-3.1v-9.37c0-3.08-1.24-4.61-3.73-4.61
				c-1.36,0-2.43,0.41-3.22,1.22c-0.79,0.81-1.18,1.85-1.18,3.13v9.6h-3.06v-16.24h2.56l0.29,2.29c0.49-0.84,1.23-1.51,2.2-2.02
				c0.97-0.5,2.02-0.76,3.15-0.76C345.62,545.13,347.1,545.71,348.2,546.88z"/>
			<path class="st0" d="M367.01,560.88c-1.43,0.97-3.1,1.46-5.01,1.46c-1.65,0-3.1-0.36-4.35-1.09c-1.26-0.73-2.23-1.74-2.92-3.05
				c-0.69-1.3-1.04-2.81-1.04-4.51c0-1.69,0.35-3.19,1.05-4.5c0.7-1.3,1.68-2.31,2.92-3.01c1.24-0.7,2.65-1.05,4.23-1.05
				c1.55,0,2.91,0.33,4.07,0.98c1.17,0.65,2.07,1.56,2.73,2.73s0.98,2.5,0.98,4c0,0.82-0.05,1.44-0.14,1.86h-12.81
				c0.05,1.55,0.56,2.79,1.53,3.72c0.97,0.93,2.22,1.4,3.75,1.4c1.13,0,2.12-0.25,2.96-0.76c0.85-0.5,1.43-1.18,1.76-2.04h2.99
				C369.34,558.62,368.44,559.9,367.01,560.88z M366.58,552.48c-0.02-1.45-0.47-2.61-1.33-3.47c-0.87-0.86-1.99-1.29-3.39-1.29
				c-1.48,0-2.69,0.43-3.62,1.29c-0.94,0.86-1.43,2.02-1.48,3.47H366.58z"/>
			<path class="st0" d="M373.55,549.23c0.71-1.3,1.7-2.31,2.97-3.03c1.27-0.71,2.73-1.07,4.37-1.07c2.09,0,3.85,0.53,5.28,1.6
				c1.43,1.07,2.29,2.52,2.58,4.34h-3.14c-0.24-1.01-0.79-1.8-1.64-2.38c-0.85-0.58-1.89-0.87-3.12-0.87
				c-1.57,0-2.85,0.53-3.82,1.59c-0.97,1.06-1.46,2.5-1.46,4.34c0,1.77,0.47,3.19,1.4,4.26c0.94,1.08,2.23,1.61,3.87,1.61
				c1.23,0,2.27-0.29,3.14-0.88c0.86-0.59,1.4-1.36,1.62-2.32h3.14c-0.3,1.77-1.17,3.19-2.61,4.28c-1.43,1.09-3.18,1.63-5.22,1.63
				c-1.67,0-3.15-0.36-4.42-1.07c-1.28-0.71-2.27-1.72-2.97-3.03c-0.7-1.3-1.05-2.81-1.05-4.51
				C372.47,552.03,372.83,550.53,373.55,549.23z"/>
			<path class="st0" d="M397.34,545.61h9.68v16.27h-3.06v-13.73h-6.61v13.73h-3.1v-13.73h-3.17v-2.54h3.17v-4.33h3.1V545.61z
				 M407.13,537.75c0.42,0.42,0.63,0.93,0.63,1.56c0,0.64-0.21,1.17-0.63,1.6c-0.42,0.43-0.96,0.65-1.62,0.65
				c-0.66,0-1.21-0.22-1.64-0.65c-0.43-0.43-0.65-0.97-0.65-1.6c0-0.61,0.22-1.13,0.65-1.55c0.43-0.42,0.98-0.63,1.64-0.63
				C406.17,537.13,406.71,537.33,407.13,537.75z"/>
			<path class="st0" d="M424.88,546.88c1.1,1.17,1.66,2.81,1.66,4.93v10.07h-3.1v-9.37c0-3.08-1.24-4.61-3.73-4.61
				c-1.36,0-2.43,0.41-3.22,1.22c-0.79,0.81-1.18,1.85-1.18,3.13v9.6h-3.06v-16.24h2.56l0.29,2.29c0.49-0.84,1.23-1.51,2.2-2.02
				c0.97-0.5,2.02-0.76,3.15-0.76C422.29,545.13,423.77,545.71,424.88,546.88z"/>
			<path class="st0" d="M447.06,545.61v16.2c0,2.37-0.75,4.26-2.25,5.69c-1.5,1.42-3.52,2.13-6.05,2.13c-2.21,0-4.04-0.57-5.5-1.71
				c-1.45-1.14-2.32-2.71-2.59-4.7h3.03c0.24,1.18,0.81,2.09,1.71,2.75c0.9,0.65,2.02,0.98,3.35,0.98c1.67,0,2.96-0.46,3.87-1.37
				c0.91-0.91,1.37-2.14,1.37-3.69v-3.42c-0.57,0.94-1.37,1.67-2.41,2.19c-1.04,0.52-2.22,0.78-3.54,0.78
				c-1.53,0-2.87-0.35-4.05-1.05c-1.17-0.7-2.07-1.66-2.69-2.89c-0.63-1.23-0.94-2.61-0.94-4.14c0-1.55,0.32-2.95,0.95-4.21
				c0.64-1.26,1.55-2.24,2.73-2.96c1.18-0.71,2.55-1.07,4.1-1.07c1.36,0,2.55,0.28,3.57,0.83c1.02,0.55,1.81,1.32,2.38,2.31
				l0.18-2.65H447.06z M442.34,557.18c0.97-1.05,1.45-2.34,1.45-3.89c0-1.55-0.48-2.85-1.43-3.89c-0.95-1.04-2.22-1.57-3.79-1.57
				c-1.55,0-2.78,0.52-3.69,1.57c-0.91,1.04-1.37,2.35-1.37,3.93c0,1.57,0.46,2.87,1.39,3.89c0.93,1.02,2.15,1.53,3.68,1.53
				C440.12,558.75,441.38,558.23,442.34,557.18z"/>
			<path class="st0" d="M468.5,548.16h-3.21v13.73h-3.06v-13.73h-3.17v-2.54h3.17v-4.33h3.06v4.33h3.21V548.16z"/>
			<path class="st0" d="M471.93,536.57h3.06v11.26c0.49-0.84,1.21-1.5,2.16-1.98c0.95-0.48,1.98-0.72,3.08-0.72
				c1.85,0,3.31,0.59,4.4,1.76c1.08,1.17,1.62,2.81,1.62,4.93v10.07h-3.06v-9.37c0-1.67-0.35-2.86-1.05-3.56
				c-0.7-0.7-1.6-1.05-2.68-1.05c-1.23,0-2.28,0.38-3.15,1.13c-0.88,0.75-1.31,1.82-1.31,3.22v9.64h-3.06V536.57z"/>
			<path class="st0" d="M503.44,560.88c-1.43,0.97-3.1,1.46-5.01,1.46c-1.65,0-3.1-0.36-4.35-1.09c-1.26-0.73-2.23-1.74-2.92-3.05
				c-0.69-1.3-1.04-2.81-1.04-4.51c0-1.69,0.35-3.19,1.05-4.5c0.7-1.3,1.68-2.31,2.92-3.01c1.24-0.7,2.65-1.05,4.23-1.05
				c1.55,0,2.91,0.33,4.07,0.98c1.17,0.65,2.07,1.56,2.73,2.73s0.98,2.5,0.98,4c0,0.82-0.05,1.44-0.14,1.86h-12.81
				c0.05,1.55,0.56,2.79,1.53,3.72c0.97,0.93,2.22,1.4,3.75,1.4c1.13,0,2.12-0.25,2.96-0.76c0.85-0.5,1.43-1.18,1.76-2.04h2.99
				C505.77,558.62,504.87,559.9,503.44,560.88z M503.01,552.48c-0.02-1.45-0.47-2.61-1.33-3.47c-0.87-0.86-1.99-1.29-3.39-1.29
				c-1.48,0-2.69,0.43-3.62,1.29c-0.94,0.86-1.43,2.02-1.48,3.47H503.01z"/>
			<path class="st0" d="M519.01,538.23h3.21v10.31h11.8v-10.31h3.21v23.66h-3.21v-10.6h-11.8v10.6h-3.21V538.23z"/>
			<path class="st0" d="M558.15,545.61v16.27h-2.88V559c-0.54,1.01-1.37,1.82-2.49,2.42c-1.12,0.61-2.38,0.91-3.78,0.91
				c-1.5,0-2.84-0.36-4.01-1.07c-1.17-0.71-2.08-1.72-2.73-3.01c-0.65-1.29-0.97-2.78-0.97-4.46c0-1.72,0.34-3.23,1.02-4.55
				c0.68-1.32,1.61-2.33,2.8-3.05c1.19-0.71,2.56-1.07,4.11-1.07c1.38,0,2.6,0.28,3.66,0.83c1.06,0.55,1.88,1.31,2.47,2.27
				l0.27-2.61H558.15z M553.54,557.96c0.98-1.07,1.48-2.5,1.48-4.31c0-1.74-0.49-3.14-1.46-4.18c-0.97-1.04-2.25-1.57-3.82-1.57
				c-1.62,0-2.91,0.53-3.87,1.6c-0.96,1.07-1.44,2.48-1.44,4.22c0,1.74,0.48,3.15,1.44,4.23c0.96,1.08,2.23,1.61,3.8,1.61
				C551.26,559.56,552.55,559.03,553.54,557.96z"/>
			<path class="st0" d="M563.2,536.57h3.06v25.32h-3.06V536.57z"/>
			<path class="st0" d="M587.18,545.61v16.27h-2.88V559c-0.54,1.01-1.37,1.82-2.49,2.42c-1.12,0.61-2.38,0.91-3.78,0.91
				c-1.5,0-2.84-0.36-4.01-1.07c-1.17-0.71-2.08-1.72-2.73-3.01c-0.65-1.29-0.97-2.78-0.97-4.46c0-1.72,0.34-3.23,1.02-4.55
				c0.68-1.32,1.61-2.33,2.8-3.05c1.19-0.71,2.56-1.07,4.11-1.07c1.38,0,2.6,0.28,3.66,0.83c1.06,0.55,1.88,1.31,2.47,2.27
				l0.27-2.61H587.18z M582.57,557.96c0.98-1.07,1.48-2.5,1.48-4.31c0-1.74-0.49-3.14-1.46-4.18c-0.97-1.04-2.25-1.57-3.82-1.57
				c-1.62,0-2.91,0.53-3.87,1.6c-0.96,1.07-1.44,2.48-1.44,4.22c0,1.74,0.48,3.15,1.44,4.23c0.96,1.08,2.23,1.61,3.8,1.61
				C580.29,559.56,581.58,559.03,582.57,557.96z"/>
			<path class="st0" d="M592.23,536.57h3.06v25.32h-3.06V536.57z"/>
			<path class="st0" d="M622.52,558.97v2.92h-13.06v-23.66h3.21v20.74H622.52z"/>
			<path class="st0" d="M625.91,540.98c-0.43-0.43-0.65-0.97-0.65-1.6c0-0.61,0.22-1.13,0.65-1.55c0.43-0.42,0.97-0.63,1.6-0.63
				c0.66,0,1.2,0.21,1.62,0.63c0.42,0.42,0.63,0.94,0.63,1.55c0,0.61-0.21,1.14-0.62,1.59c-0.41,0.44-0.96,0.67-1.63,0.67
				C626.87,541.63,626.34,541.42,625.91,540.98z M626,545.61h3.06v16.27H626V545.61z"/>
			<path class="st0" d="M639.33,539.51c-0.41,0.34-0.66,0.73-0.76,1.18c-0.1,0.45-0.14,1.01-0.14,1.68v3.24h3.98v2.54h-3.98v13.73
				h-3.06v-13.73h-2.96v-2.54h2.96v-3.84c0-3.57,1.77-5.35,5.32-5.35c0.66,0,1.24,0.05,1.73,0.14v2.54
				c-0.28-0.07-0.67-0.11-1.19-0.11C640.37,539,639.74,539.17,639.33,539.51z"/>
			<path class="st0" d="M657.49,560.88c-1.43,0.97-3.1,1.46-5.01,1.46c-1.65,0-3.1-0.36-4.35-1.09c-1.26-0.73-2.23-1.74-2.92-3.05
				c-0.69-1.3-1.04-2.81-1.04-4.51c0-1.69,0.35-3.19,1.05-4.5c0.7-1.3,1.68-2.31,2.92-3.01c1.24-0.7,2.65-1.05,4.23-1.05
				c1.55,0,2.91,0.33,4.07,0.98c1.17,0.65,2.07,1.56,2.73,2.73c0.65,1.17,0.98,2.5,0.98,4c0,0.82-0.05,1.44-0.14,1.86H647.2
				c0.05,1.55,0.56,2.79,1.53,3.72c0.97,0.93,2.22,1.4,3.75,1.4c1.13,0,2.12-0.25,2.96-0.76c0.85-0.5,1.43-1.18,1.76-2.04h2.99
				C659.82,558.62,658.92,559.9,657.49,560.88z M657.06,552.48c-0.02-1.45-0.47-2.61-1.33-3.47c-0.87-0.86-1.99-1.29-3.39-1.29
				c-1.48,0-2.69,0.43-3.62,1.29c-0.94,0.86-1.43,2.02-1.48,3.47H657.06z"/>
			<path class="st0" d="M664.93,560.97c-1.22-0.91-1.88-2.12-1.97-3.62h2.99c0.07,0.84,0.43,1.49,1.08,1.95
				c0.65,0.46,1.51,0.69,2.58,0.69c1.06,0,1.88-0.21,2.47-0.63c0.59-0.42,0.88-1.02,0.88-1.78c0-0.76-0.23-1.3-0.7-1.63
				c-0.47-0.33-1.07-0.57-1.8-0.73l-2.88-0.67c-1.43-0.32-2.48-0.87-3.16-1.64c-0.68-0.77-1.02-1.71-1.02-2.81
				c0-1.5,0.57-2.7,1.7-3.6c1.14-0.9,2.61-1.35,4.42-1.35c1.85,0,3.35,0.46,4.5,1.39c1.15,0.92,1.75,2.15,1.79,3.68h-2.99
				c-0.02-0.84-0.34-1.5-0.96-1.98c-0.62-0.48-1.41-0.72-2.37-0.72c-0.91,0-1.64,0.2-2.17,0.61c-0.53,0.41-0.8,0.98-0.8,1.71
				c0,0.69,0.21,1.18,0.64,1.5c0.42,0.31,0.99,0.54,1.68,0.69l3.28,0.74c1.36,0.3,2.37,0.85,3.03,1.65c0.66,0.8,0.99,1.76,0.99,2.89
				c0,1.55-0.59,2.78-1.78,3.69c-1.18,0.91-2.77,1.37-4.75,1.37C667.71,562.34,666.15,561.88,664.93,560.97z"/>
			<path class="st0" d="M704.28,545.61l-7.46,19.44c-0.59,1.45-1.33,2.55-2.22,3.29c-0.89,0.74-2.11,1.11-3.66,1.11
				c-0.82,0-1.66-0.13-2.54-0.38v-2.51c0.1,0.02,0.34,0.07,0.74,0.14c0.4,0.07,0.84,0.11,1.34,0.11c1.06,0,1.83-0.21,2.32-0.62
				c0.49-0.42,0.89-1.05,1.21-1.92l0.6-1.55l-5.95-14.58h-3.95v13.73h-3.1v-13.73h-3.17v-2.54h3.17v-4.33h3.1v4.33h6.2l5.14,13.28
				l4.97-13.28H704.28z"/>
			<path class="st0" d="M707.32,536.57h3.06v25.32h-3.06V536.57z"/>
			<path class="st0" d="M727.76,560.88c-1.43,0.97-3.1,1.46-5.01,1.46c-1.65,0-3.1-0.36-4.35-1.09c-1.26-0.73-2.23-1.74-2.92-3.05
				c-0.69-1.3-1.04-2.81-1.04-4.51c0-1.69,0.35-3.19,1.05-4.5c0.7-1.3,1.68-2.31,2.92-3.01c1.24-0.7,2.65-1.05,4.23-1.05
				c1.55,0,2.91,0.33,4.07,0.98c1.17,0.65,2.07,1.56,2.73,2.73c0.65,1.17,0.98,2.5,0.98,4c0,0.82-0.05,1.44-0.14,1.86h-12.81
				c0.05,1.55,0.56,2.79,1.53,3.72c0.97,0.93,2.22,1.4,3.75,1.4c1.13,0,2.12-0.25,2.96-0.76c0.85-0.5,1.43-1.18,1.76-2.04h2.99
				C730.09,558.62,729.18,559.9,727.76,560.88z M727.32,552.48c-0.02-1.45-0.47-2.61-1.33-3.47c-0.87-0.86-1.99-1.29-3.39-1.29
				c-1.48,0-2.69,0.43-3.62,1.29c-0.94,0.86-1.43,2.02-1.48,3.47H727.32z"/>
		</g>
		<g>
			<path class="st1" d="M344.57,451.22c-9.65,0-17.94,3.45-24.84,10.36c-6.87,6.86-10.3,15.13-10.3,24.78
				c0,9.57,3.3,17.79,9.91,24.65c6.65,6.91,14.7,10.36,24.14,10.36c8.88,0,16.58-3.07,23.11-9.2v8.11h13.19v-33.92
				c0-9.61-3.45-17.87-10.36-24.78C362.51,454.67,354.23,451.22,344.57,451.22z M360.09,501.87c-4.29,4.29-9.46,6.44-15.51,6.44
				c-6.05,0-11.22-2.15-15.51-6.44c-4.29-4.29-6.43-9.46-6.43-15.51c0-6.01,2.14-11.16,6.43-15.45c4.33-4.33,9.5-6.5,15.51-6.5
				c6.01,0,11.18,2.17,15.51,6.5c4.33,4.34,6.5,9.48,6.5,15.45C366.59,492.37,364.42,497.54,360.09,501.87z"/>
			<rect x="396.77" y="430.37" class="st1" width="13.13" height="89.92"/>
			<path class="st1" d="M459.34,451.22c-9.65,0-17.94,3.45-24.85,10.36c-6.86,6.86-10.3,15.13-10.3,24.78
				c0,9.57,3.3,17.79,9.91,24.65c6.65,6.91,14.7,10.36,24.14,10.36c8.88,0,16.58-3.07,23.11-9.2v8.11h13.19v-33.92
				c0-9.61-3.45-17.87-10.36-24.78C477.27,454.67,468.99,451.22,459.34,451.22z M474.85,501.87c-4.29,4.29-9.46,6.44-15.51,6.44
				c-6.05,0-11.22-2.15-15.51-6.44c-4.29-4.29-6.44-9.46-6.44-15.51c0-6.01,2.15-11.16,6.44-15.45c4.33-4.33,9.5-6.5,15.51-6.5
				c6.01,0,11.18,2.17,15.51,6.5c4.33,4.34,6.5,9.48,6.5,15.45C481.35,492.37,479.18,497.54,474.85,501.87z"/>
			<rect x="511.53" y="430.37" class="st1" width="13.13" height="89.92"/>
			<polygon class="st1" points="612.68,472.88 571.74,472.88 571.74,433.08 558.61,433.08 558.61,520.28 571.74,520.28 
				571.74,486.01 612.68,486.01 612.68,520.28 626.7,520.28 626.7,433.08 612.68,433.08 			"/>
			<path class="st1" d="M689.85,491.83c0,4.46-1.63,8.32-4.89,11.58c-3.26,3.26-7.12,4.89-11.59,4.89c-4.46,0-8.32-1.63-11.58-4.89
				c-3.26-3.26-4.89-7.12-4.89-11.58v-39.52H643.7v39.52c0,7.85,2.98,14.74,8.95,20.66c5.96,5.92,12.87,8.88,20.73,8.88
				c7.77,0,14.65-2.96,20.66-8.88c6.01-5.92,9.01-12.81,9.01-20.66v-39.52h-13.19V491.83z"/>
			<path class="st1" d="M777.57,461.65c-6.65-6.95-14.68-10.43-24.07-10.43c-8.88,0-16.56,3.11-23.04,9.33v-30.19h-13.19v56
				c0,9.65,3.43,17.92,10.3,24.78c6.86,6.82,15.15,10.23,24.85,10.23c9.61,0,17.87-3.41,24.78-10.23
				c6.91-6.91,10.36-15.17,10.36-24.78C787.55,476.88,784.22,468.64,777.57,461.65z M767.85,501.87c-4.29,4.29-9.44,6.44-15.45,6.44
				c-6.05,0-11.22-2.15-15.51-6.44c-4.29-4.29-6.44-9.46-6.44-15.51c0-6.01,2.14-11.16,6.44-15.45c4.33-4.33,9.5-6.5,15.51-6.5
				c5.96,0,11.11,2.17,15.45,6.5c4.33,4.34,6.5,9.48,6.5,15.45C774.35,492.37,772.19,497.54,767.85,501.87z"/>
			<path class="st1" d="M240.25,430.37h-13.13v30.04c3.75,4,8.19,7.32,13.13,9.8V430.37z"/>
			<path class="st1" d="M282.02,520.29h13.18v-34.28c-4.13,2.45-8.54,4.46-13.18,5.98V520.29z"/>
			<path class="st1" d="M299.65,460.57c-1.38,1.65-2.87,3.2-4.45,4.67v-34.87h-13.18v43.7c-1.65,0.76-3.35,1.43-5.09,2.01
				c-4.97,1.65-10.28,2.56-15.8,2.56c-15.51,0-29.34-7.01-38.53-18.04l-6.15,5.13l-4,3.34c1.26,1.51,2.61,2.95,4,4.34
				c1.66,1.64,3.4,3.2,5.23,4.65c1.74,1.38,3.55,2.67,5.44,3.87v38.36h13.13V488.3c3.21,1.12,6.54,1.98,9.96,2.57
				c3.55,0.61,7.2,0.94,10.92,0.94c16.03,0,30.65-5.95,41.82-15.74c2.46-2.16,4.76-4.5,6.86-7.01L299.65,460.57z"/>
		</g>
	</g>
</g>
</svg>
